<svg width="237" height="93" viewBox="0 0 237 93" fill="none" xmlns="http://www.w3.org/2000/svg">
<path d="M58.8438 28.1562C58.8438 30.6771 58.3646 32.9375 57.4062 34.9375C56.4479 36.9167 55.0938 38.6042 53.3438 40C51.5938 41.375 49.5 42.4375 47.0625 43.1875C44.625 43.9167 41.9375 44.2812 39 44.2812C38.6458 44.2812 38.3333 44.1875 38.0625 44C37.8125 43.7917 37.6875 43.4896 37.6875 43.0938C37.6875 42.7812 37.8021 42.5104 38.0312 42.2812C38.2604 42.0521 38.5417 41.9375 38.875 41.9375C41.5 41.9375 43.8958 41.6354 46.0625 41.0312C48.2292 40.4271 50.0833 39.5417 51.625 38.375C53.1667 37.1875 54.3646 35.7396 55.2188 34.0312C56.0729 32.3229 56.5 30.3646 56.5 28.1562C56.5 25.9062 56 23.9062 55 22.1562C54.0208 20.4062 52.6354 18.9271 50.8438 17.7188C49.0729 16.5104 46.9479 15.5938 44.4688 14.9688C42.0104 14.3438 39.3021 14.0312 36.3438 14.0312C33.5521 14.0312 30.8438 14.2604 28.2188 14.7188C25.6146 15.1771 23.1667 15.8229 20.875 16.6562C18.5833 17.4896 16.4896 18.4896 14.5938 19.6562C12.7188 20.8229 11.1042 22.1042 9.75 23.5C8.41667 24.8958 7.375 26.3958 6.625 28C5.875 29.5833 5.5 31.2292 5.5 32.9375C5.5 34.4375 5.76042 35.75 6.28125 36.875C6.80208 38 7.48958 38.9479 8.34375 39.7188C9.21875 40.4688 10.2188 41.0312 11.3438 41.4062C12.4688 41.7812 13.6458 41.9688 14.875 41.9688C16.3333 41.9688 17.625 41.8125 18.75 41.5C19.8958 41.1875 20.8542 40.8438 21.625 40.4688C22.4167 40.0938 23.0208 39.75 23.4375 39.4375C23.8542 39.1042 24.0833 38.9167 24.125 38.875C24.3542 38.6458 24.625 38.5312 24.9375 38.5312C25.25 38.5312 25.5208 38.6562 25.75 38.9062C26 39.1354 26.125 39.4062 26.125 39.7188C26.125 40.0729 26 40.3542 25.75 40.5625C25.7083 40.6042 25.4375 40.8229 24.9375 41.2188C24.4583 41.6146 23.75 42.0521 22.8125 42.5312C21.8958 42.9896 20.7708 43.4062 19.4375 43.7812C18.1042 44.1562 16.5833 44.3438 14.875 44.3438C13.3125 44.3438 11.8125 44.0833 10.375 43.5625C8.95833 43.0417 7.70833 42.2917 6.625 41.3125C5.5625 40.3125 4.70833 39.1146 4.0625 37.7188C3.4375 36.3021 3.125 34.7083 3.125 32.9375C3.125 31 3.52083 29.1354 4.3125 27.3438C5.125 25.5312 6.25 23.8438 7.6875 22.2812C9.14583 20.6979 10.8854 19.2604 12.9062 17.9688C14.9271 16.6562 17.1667 15.5417 19.625 14.625C22.0833 13.6875 24.7188 12.9688 27.5312 12.4688C30.3438 11.9479 33.2604 11.6875 36.2812 11.6875C39.5938 11.6875 42.6354 12.0625 45.4062 12.8125C48.1771 13.5625 50.5521 14.6458 52.5312 16.0625C54.5312 17.4792 56.0833 19.2083 57.1875 21.25C58.2917 23.2708 58.8438 25.5729 58.8438 28.1562ZM40.2812 20.7188C40.5938 20.7188 40.8646 20.8333 41.0938 21.0625C41.3438 21.2708 41.4688 21.5521 41.4688 21.9062C41.4688 22.1146 41.4062 22.3021 41.2812 22.4688C41.1771 22.6354 41.0417 22.7917 40.875 22.9375C39.7083 23.8542 38.7708 24.8438 38.0625 25.9062C37.375 26.9688 36.8438 28.1146 36.4688 29.3438C36.1146 30.5521 35.875 31.8438 35.75 33.2188C35.6458 34.5938 35.5938 36.0312 35.5938 37.5312V41.4688C35.5938 44.0521 35.3646 46.5104 34.9062 48.8438C34.4479 51.1562 33.6667 53.1875 32.5625 54.9375C31.4792 56.6875 30.0208 58.0729 28.1875 59.0938C26.3542 60.1354 24.0521 60.6562 21.2812 60.6562C20.0312 60.6562 18.8021 60.5 17.5938 60.1875C16.4062 59.8958 15.2812 59.4688 14.2188 58.9062C13.1562 58.3229 12.1771 57.6146 11.2812 56.7812C10.3854 55.9479 9.61458 55.0104 8.96875 53.9688C8.92708 53.8854 8.88542 53.7917 8.84375 53.6875C8.80208 53.5625 8.78125 53.4479 8.78125 53.3438C8.78125 53.0521 8.88542 52.7917 9.09375 52.5625C9.32292 52.3125 9.61458 52.1875 9.96875 52.1875C10.1771 52.1875 10.3646 52.25 10.5312 52.375C10.7188 52.4792 10.875 52.6146 11 52.7812C12.3333 54.6354 13.8438 56.0312 15.5312 56.9688C17.2188 57.8854 19.1354 58.3438 21.2812 58.3438C23.7396 58.3438 25.7396 57.8958 27.2812 57C28.8438 56.0833 30.0625 54.8438 30.9375 53.2812C31.8333 51.6979 32.4375 49.8542 32.75 47.75C33.0833 45.6458 33.25 43.4062 33.25 41.0312V37.0625C33.25 35.6667 33.3125 34.2292 33.4375 32.75C33.5625 31.25 33.8438 29.7917 34.2812 28.375C34.7396 26.9375 35.3854 25.5833 36.2188 24.3125C37.0729 23.0208 38.2188 21.8854 39.6562 20.9062C39.7396 20.8646 39.8438 20.8229 39.9688 20.7812C40.0938 20.7396 40.1979 20.7188 40.2812 20.7188ZM60.6875 55.5625C61.125 56.1667 61.6875 56.6562 62.375 57.0312C63.0625 57.3854 63.9062 57.5625 64.9062 57.5625C65.9271 57.5625 66.8542 57.3229 67.6875 56.8438C68.5208 56.3438 69.2812 55.6979 69.9688 54.9062C70.6562 54.1146 71.2708 53.2292 71.8125 52.25C72.3542 51.2708 72.8438 50.2917 73.2812 49.3125C73.3854 49.0833 73.5312 48.9167 73.7188 48.8125C73.9062 48.6875 74.1146 48.625 74.3438 48.625C74.6979 48.625 74.9792 48.75 75.1875 49C75.4167 49.25 75.5312 49.5208 75.5312 49.8125C75.5312 49.9167 75.5208 50.0104 75.5 50.0938C75.4792 50.1562 75.4479 50.2292 75.4062 50.3125C73.9688 53.4792 72.3958 55.8646 70.6875 57.4688C69 59.0729 67.0833 59.8958 64.9375 59.9375C63.5625 59.9375 62.375 59.6667 61.375 59.125C60.375 58.6042 59.5521 57.9271 58.9062 57.0938C58.2604 56.2396 57.7812 55.2812 57.4688 54.2188C57.1562 53.1562 57 52.0938 57 51.0312C57 49.9688 57.125 48.9896 57.375 48.0938C57.6458 47.1979 58.0208 46.4167 58.5 45.75C59 45.0833 59.5833 44.5625 60.25 44.1875C60.9375 43.8125 61.6875 43.625 62.5 43.625C62.9792 43.625 63.4479 43.7292 63.9062 43.9375C64.3854 44.125 64.8125 44.4062 65.1875 44.7812C65.5625 45.1354 65.8646 45.5729 66.0938 46.0938C66.3229 46.6146 66.4375 47.2083 66.4375 47.875C66.4375 48.7292 66.2917 49.5312 66 50.2812C65.7083 51.0312 65.3021 51.7292 64.7812 52.375C64.2812 53.0208 63.6771 53.6146 62.9688 54.1562C62.2604 54.6979 61.5 55.1667 60.6875 55.5625ZM59.75 53.5312C60.3958 53.2604 60.9792 52.9167 61.5 52.5C62.0417 52.0833 62.5 51.625 62.875 51.125C63.25 50.625 63.5417 50.1042 63.75 49.5625C63.9583 49 64.0625 48.4375 64.0625 47.875C64.0625 47.25 63.9062 46.7812 63.5938 46.4688C63.2812 46.1354 62.9167 45.9688 62.5 45.9688C61.9375 45.9688 61.4583 46.125 61.0625 46.4375C60.6667 46.75 60.3438 47.1562 60.0938 47.6562C59.8438 48.1562 59.6562 48.7188 59.5312 49.3438C59.4271 49.9479 59.375 50.5521 59.375 51.1562C59.375 51.5312 59.4062 51.9271 59.4688 52.3438C59.5521 52.7604 59.6458 53.1562 59.75 53.5312ZM98.625 27.7188C98.625 28.0521 98.5104 28.3229 98.2812 28.5312C98.0521 28.7188 97.7708 28.8125 97.4375 28.8125H81.5938V29.1562C81.5938 30.4271 81.5 31.7812 81.3125 33.2188C81.125 34.6562 80.8646 36.0938 80.5312 37.5312C80.2188 38.9479 79.8542 40.3333 79.4375 41.6875C79.0417 43.0417 78.625 44.2917 78.1875 45.4375C77.7708 46.5833 77.3542 47.5833 76.9375 48.4375C76.5208 49.2708 76.1458 49.8958 75.8125 50.3125C76.0833 51.2708 76.4062 52.1667 76.7812 53C77.1562 53.8125 77.5729 54.5312 78.0312 55.1562C78.5104 55.7604 79.0208 56.2396 79.5625 56.5938C80.1042 56.9479 80.6875 57.125 81.3125 57.125C82.0417 57.125 82.7604 56.8229 83.4688 56.2188C84.1979 55.5938 84.8646 54.8646 85.4688 54.0312C86.0938 53.1771 86.6354 52.3229 87.0938 51.4688C87.5729 50.5938 87.9167 49.8958 88.125 49.375C88.3333 48.875 88.6979 48.625 89.2188 48.625C89.5729 48.625 89.8542 48.75 90.0625 49C90.2917 49.25 90.4062 49.5208 90.4062 49.8125C90.4062 49.9583 90.375 50.1042 90.3125 50.25C90.25 50.3958 90.0938 50.7292 89.8438 51.25C89.6146 51.7708 89.3021 52.375 88.9062 53.0625C88.5312 53.75 88.0833 54.4792 87.5625 55.25C87.0625 56 86.4896 56.6875 85.8438 57.3125C85.2188 57.9375 84.5417 58.4583 83.8125 58.875C83.0833 59.2917 82.3125 59.5 81.5 59.5C80.0625 59.5 78.7708 59.0312 77.625 58.0938C76.4792 57.1562 75.5 55.8438 74.6875 54.1562C73.8958 52.4688 73.2917 50.4688 72.875 48.1562C72.4583 45.8438 72.25 43.3125 72.25 40.5625C72.25 39.875 72.2604 39.0729 72.2812 38.1562C72.3021 37.2188 72.3438 36.2396 72.4062 35.2188C72.4688 34.1771 72.5625 33.1146 72.6875 32.0312C72.8125 30.9271 72.9792 29.8542 73.1875 28.8125H61.9688C61.6354 28.8125 61.3542 28.7188 61.125 28.5312C60.8958 28.3229 60.7812 28.0521 60.7812 27.7188C60.7812 27.3854 60.8958 27.125 61.125 26.9375C61.3542 26.7292 61.6354 26.625 61.9688 26.625H73.7188C73.9271 25.875 74.1667 25.1875 74.4375 24.5625C74.7292 23.9375 75.0521 23.3958 75.4062 22.9375C75.7812 22.4792 76.1875 22.125 76.625 21.875C77.0833 21.6042 77.5833 21.4688 78.125 21.4688C78.6458 21.4688 79.0938 21.6042 79.4688 21.875C79.8646 22.125 80.1979 22.4792 80.4688 22.9375C80.7396 23.3958 80.9479 23.9375 81.0938 24.5625C81.2604 25.1875 81.3854 25.875 81.4688 26.625H97.4375C97.7708 26.625 98.0521 26.7292 98.2812 26.9375C98.5104 27.125 98.625 27.3854 98.625 27.7188ZM75.0938 47.1875C75.7188 45.8125 76.2812 44.3333 76.7812 42.75C77.3021 41.1458 77.7396 39.5312 78.0938 37.9062C78.4688 36.2812 78.75 34.6875 78.9375 33.125C79.1458 31.5625 79.25 30.125 79.25 28.8125H75.5625C75.2708 30.1042 75.0312 31.7083 74.8438 33.625C74.6771 35.5208 74.5938 37.8333 74.5938 40.5625C74.5938 42.0833 74.6354 43.3646 74.7188 44.4062C74.8021 45.4271 74.9271 46.3542 75.0938 47.1875ZM78 23.8125C77.8125 23.8125 77.5417 24.0208 77.1875 24.4375C76.8333 24.8333 76.4792 25.5625 76.125 26.625H79.125C79.0208 25.75 78.8646 25.0625 78.6562 24.5625C78.4688 24.0625 78.25 23.8125 78 23.8125ZM75.5938 49.4375V49.4688V49.4375ZM143.75 26.1875C143.688 26.4792 143.552 26.7083 143.344 26.875C143.135 27.0417 142.906 27.125 142.656 27.125C142.281 27.125 141.979 27.0104 141.75 26.7812C141.521 26.5312 141.406 26.25 141.406 25.9375C141.406 25.625 141.438 25.3229 141.5 25.0312C141.562 24.7188 141.594 24.4167 141.594 24.125C141.594 22.6042 141.125 21.2396 140.188 20.0312C139.25 18.8229 137.917 17.8125 136.188 17C134.479 16.1667 132.396 15.5312 129.938 15.0938C127.479 14.6562 124.74 14.4375 121.719 14.4375C119.406 14.4375 117.073 14.5938 114.719 14.9062C112.385 15.1979 110.135 15.6354 107.969 16.2188C105.823 16.7812 103.812 17.5 101.938 18.375C100.062 19.2292 98.4271 20.2292 97.0312 21.375C95.6562 22.5 94.5729 23.7604 93.7812 25.1562C92.9896 26.5312 92.5938 28.0417 92.5938 29.6875C92.5938 30.9583 92.8646 32.0833 93.4062 33.0625C93.9688 34.0208 94.7292 34.8646 95.6875 35.5938C96.6458 36.3021 97.7708 36.9167 99.0625 37.4375C100.375 37.9375 101.792 38.3646 103.312 38.7188C104.833 39.0521 106.417 39.3333 108.062 39.5625C109.708 39.7708 111.365 39.9479 113.031 40.0938L117.844 40.5C120.24 40.7083 122.385 40.9271 124.281 41.1562C126.177 41.3854 127.844 41.6771 129.281 42.0312C131.677 42.6354 133.448 43.5 134.594 44.625C135.74 45.75 136.312 47.25 136.312 49.125C136.312 50.9375 135.812 52.5312 134.812 53.9062C133.812 55.2812 132.448 56.4375 130.719 57.375C128.99 58.3125 126.969 59.0208 124.656 59.5C122.344 59.9792 119.865 60.2188 117.219 60.2188C114.344 60.2188 111.812 60.0208 109.625 59.625C107.458 59.25 105.635 58.8333 104.156 58.375C102.698 57.8958 101.583 57.4583 100.812 57.0625C100.042 56.6667 99.625 56.4479 99.5625 56.4062C99.1875 56.1979 99 55.8646 99 55.4062C99 55.0521 99.125 54.7708 99.375 54.5625C99.625 54.3333 99.8958 54.2188 100.188 54.2188C100.417 54.2188 100.625 54.2812 100.812 54.4062C100.833 54.4062 101.188 54.5938 101.875 54.9688C102.583 55.3229 103.625 55.7188 105 56.1562C106.396 56.5938 108.115 56.9896 110.156 57.3438C112.198 57.6979 114.573 57.875 117.281 57.875C119.969 57.875 122.344 57.6562 124.406 57.2188C126.469 56.7812 128.198 56.1771 129.594 55.4062C131.01 54.6146 132.073 53.6979 132.781 52.6562C133.51 51.5938 133.875 50.4479 133.875 49.2188C133.875 48.4896 133.74 47.8646 133.469 47.3438C133.219 46.8021 132.865 46.3438 132.406 45.9688C131.948 45.5729 131.396 45.2396 130.75 44.9688C130.125 44.6979 129.438 44.4688 128.688 44.2812C127.896 44.0729 127.042 43.8958 126.125 43.75C125.229 43.6042 124.302 43.4792 123.344 43.375C122.385 43.2708 121.417 43.1771 120.438 43.0938C119.479 43.0104 118.531 42.9271 117.594 42.8438L112.781 42.4375C108.99 42.125 105.677 41.6458 102.844 41C100.031 40.3333 97.6875 39.4896 95.8125 38.4688C93.9375 37.4271 92.5312 36.1875 91.5938 34.75C90.6562 33.3125 90.1875 31.6354 90.1875 29.7188C90.1875 27.7604 90.625 25.9688 91.5 24.3438C92.3958 22.6979 93.6042 21.2188 95.125 19.9062C96.6667 18.5938 98.4583 17.4583 100.5 16.5C102.562 15.5208 104.76 14.7083 107.094 14.0625C109.427 13.4167 111.844 12.9375 114.344 12.625C116.844 12.2917 119.302 12.125 121.719 12.125C124.74 12.125 127.365 12.3125 129.594 12.6875C131.844 13.0417 133.76 13.5104 135.344 14.0938C136.948 14.6562 138.26 15.3021 139.281 16.0312C140.302 16.7604 141.125 17.4792 141.75 18.1875C143.229 19.9167 143.969 21.8854 143.969 24.0938C143.969 24.8229 143.896 25.5208 143.75 26.1875ZM145.906 34.4688C145.906 35.2604 145.625 35.9375 145.062 36.5C144.521 37.0417 143.854 37.3125 143.062 37.3125C142.271 37.3125 141.594 37.0417 141.031 36.5C140.49 35.9375 140.219 35.2604 140.219 34.4688C140.219 34.0729 140.292 33.7083 140.438 33.375C140.583 33.0208 140.781 32.7188 141.031 32.4688C141.302 32.1979 141.604 31.9896 141.938 31.8438C142.292 31.6979 142.667 31.625 143.062 31.625C143.458 31.625 143.823 31.6979 144.156 31.8438C144.51 31.9896 144.812 32.1979 145.062 32.4688C145.333 32.7188 145.542 33.0208 145.688 33.375C145.833 33.7083 145.906 34.0729 145.906 34.4688ZM140.844 52.7812C140.844 49.7812 141.031 46.7917 141.406 43.8125C141.448 43.5208 141.573 43.2708 141.781 43.0625C142.01 42.8333 142.302 42.7188 142.656 42.7188C142.969 42.7188 143.229 42.8438 143.438 43.0938C143.646 43.3229 143.75 43.5938 143.75 43.9062C143.75 44.0312 143.719 44.4062 143.656 45.0312C143.615 45.6562 143.552 46.4062 143.469 47.2812C143.406 48.1354 143.344 49.0521 143.281 50.0312C143.24 50.9896 143.219 51.875 143.219 52.6875C143.219 53.7917 143.323 54.6875 143.531 55.375C143.76 56.0417 144.042 56.5625 144.375 56.9375C144.729 57.3125 145.094 57.5625 145.469 57.6875C145.865 57.8125 146.24 57.875 146.594 57.875C147.177 57.875 147.781 57.6667 148.406 57.25C149.031 56.8333 149.667 56.25 150.312 55.5C150.979 54.75 151.646 53.8542 152.312 52.8125C152.979 51.75 153.635 50.5729 154.281 49.2812C154.385 49.0729 154.531 48.9167 154.719 48.8125C154.906 48.6875 155.115 48.625 155.344 48.625C155.677 48.625 155.948 48.75 156.156 49C156.385 49.25 156.5 49.5208 156.5 49.8125C156.5 50.0208 156.458 50.1979 156.375 50.3438C156.125 50.8229 155.812 51.4062 155.438 52.0938C155.062 52.7812 154.635 53.4896 154.156 54.2188C153.677 54.9479 153.146 55.6771 152.562 56.4062C152 57.1146 151.396 57.7604 150.75 58.3438C150.104 58.9062 149.427 59.3646 148.719 59.7188C148.01 60.0729 147.292 60.25 146.562 60.25C145.625 60.25 144.802 60.0521 144.094 59.6562C143.385 59.2604 142.781 58.7292 142.281 58.0625C141.802 57.3958 141.438 56.6146 141.188 55.7188C140.958 54.8021 140.844 53.8229 140.844 52.7812ZM144.156 34.4688C144.156 34.1771 144.042 33.9271 143.812 33.7188C143.604 33.4896 143.354 33.375 143.062 33.375C142.771 33.375 142.521 33.4896 142.312 33.7188C142.104 33.9271 142 34.1771 142 34.4688C142 34.7604 142.104 35.0104 142.312 35.2188C142.521 35.4271 142.771 35.5312 143.062 35.5312C143.354 35.5312 143.604 35.4271 143.812 35.2188C144.042 35.0104 144.156 34.7604 144.156 34.4688ZM179.562 27.7188C179.562 28.0521 179.448 28.3229 179.219 28.5312C178.99 28.7188 178.708 28.8125 178.375 28.8125H162.531V29.1562C162.531 30.4271 162.438 31.7812 162.25 33.2188C162.062 34.6562 161.802 36.0938 161.469 37.5312C161.156 38.9479 160.792 40.3333 160.375 41.6875C159.979 43.0417 159.562 44.2917 159.125 45.4375C158.708 46.5833 158.292 47.5833 157.875 48.4375C157.458 49.2708 157.083 49.8958 156.75 50.3125C157.021 51.2708 157.344 52.1667 157.719 53C158.094 53.8125 158.51 54.5312 158.969 55.1562C159.448 55.7604 159.958 56.2396 160.5 56.5938C161.042 56.9479 161.625 57.125 162.25 57.125C162.979 57.125 163.698 56.8229 164.406 56.2188C165.135 55.5938 165.802 54.8646 166.406 54.0312C167.031 53.1771 167.573 52.3229 168.031 51.4688C168.51 50.5938 168.854 49.8958 169.062 49.375C169.271 48.875 169.635 48.625 170.156 48.625C170.51 48.625 170.792 48.75 171 49C171.229 49.25 171.344 49.5208 171.344 49.8125C171.344 49.9583 171.312 50.1042 171.25 50.25C171.188 50.3958 171.031 50.7292 170.781 51.25C170.552 51.7708 170.24 52.375 169.844 53.0625C169.469 53.75 169.021 54.4792 168.5 55.25C168 56 167.427 56.6875 166.781 57.3125C166.156 57.9375 165.479 58.4583 164.75 58.875C164.021 59.2917 163.25 59.5 162.438 59.5C161 59.5 159.708 59.0312 158.562 58.0938C157.417 57.1562 156.438 55.8438 155.625 54.1562C154.833 52.4688 154.229 50.4688 153.812 48.1562C153.396 45.8438 153.188 43.3125 153.188 40.5625C153.188 39.875 153.198 39.0729 153.219 38.1562C153.24 37.2188 153.281 36.2396 153.344 35.2188C153.406 34.1771 153.5 33.1146 153.625 32.0312C153.75 30.9271 153.917 29.8542 154.125 28.8125H142.906C142.573 28.8125 142.292 28.7188 142.062 28.5312C141.833 28.3229 141.719 28.0521 141.719 27.7188C141.719 27.3854 141.833 27.125 142.062 26.9375C142.292 26.7292 142.573 26.625 142.906 26.625H154.656C154.865 25.875 155.104 25.1875 155.375 24.5625C155.667 23.9375 155.99 23.3958 156.344 22.9375C156.719 22.4792 157.125 22.125 157.562 21.875C158.021 21.6042 158.521 21.4688 159.062 21.4688C159.583 21.4688 160.031 21.6042 160.406 21.875C160.802 22.125 161.135 22.4792 161.406 22.9375C161.677 23.3958 161.885 23.9375 162.031 24.5625C162.198 25.1875 162.323 25.875 162.406 26.625H178.375C178.708 26.625 178.99 26.7292 179.219 26.9375C179.448 27.125 179.562 27.3854 179.562 27.7188ZM156.031 47.1875C156.656 45.8125 157.219 44.3333 157.719 42.75C158.24 41.1458 158.677 39.5312 159.031 37.9062C159.406 36.2812 159.688 34.6875 159.875 33.125C160.083 31.5625 160.188 30.125 160.188 28.8125H156.5C156.208 30.1042 155.969 31.7083 155.781 33.625C155.615 35.5208 155.531 37.8333 155.531 40.5625C155.531 42.0833 155.573 43.3646 155.656 44.4062C155.74 45.4271 155.865 46.3542 156.031 47.1875ZM158.938 23.8125C158.75 23.8125 158.479 24.0208 158.125 24.4375C157.771 24.8333 157.417 25.5625 157.062 26.625H160.062C159.958 25.75 159.802 25.0625 159.594 24.5625C159.406 24.0625 159.188 23.8125 158.938 23.8125ZM156.531 49.4375V49.4688V49.4375ZM194.5 27.7188C194.5 28.0521 194.385 28.3229 194.156 28.5312C193.927 28.7188 193.646 28.8125 193.312 28.8125H177.469V29.1562C177.469 30.4271 177.375 31.7812 177.188 33.2188C177 34.6562 176.74 36.0938 176.406 37.5312C176.094 38.9479 175.729 40.3333 175.312 41.6875C174.917 43.0417 174.5 44.2917 174.062 45.4375C173.646 46.5833 173.229 47.5833 172.812 48.4375C172.396 49.2708 172.021 49.8958 171.688 50.3125C171.958 51.2708 172.281 52.1667 172.656 53C173.031 53.8125 173.448 54.5312 173.906 55.1562C174.385 55.7604 174.896 56.2396 175.438 56.5938C175.979 56.9479 176.562 57.125 177.188 57.125C177.917 57.125 178.635 56.8229 179.344 56.2188C180.073 55.5938 180.74 54.8646 181.344 54.0312C181.969 53.1771 182.51 52.3229 182.969 51.4688C183.448 50.5938 183.792 49.8958 184 49.375C184.208 48.875 184.573 48.625 185.094 48.625C185.448 48.625 185.729 48.75 185.938 49C186.167 49.25 186.281 49.5208 186.281 49.8125C186.281 49.9583 186.25 50.1042 186.188 50.25C186.125 50.3958 185.969 50.7292 185.719 51.25C185.49 51.7708 185.177 52.375 184.781 53.0625C184.406 53.75 183.958 54.4792 183.438 55.25C182.938 56 182.365 56.6875 181.719 57.3125C181.094 57.9375 180.417 58.4583 179.688 58.875C178.958 59.2917 178.188 59.5 177.375 59.5C175.938 59.5 174.646 59.0312 173.5 58.0938C172.354 57.1562 171.375 55.8438 170.562 54.1562C169.771 52.4688 169.167 50.4688 168.75 48.1562C168.333 45.8438 168.125 43.3125 168.125 40.5625C168.125 39.875 168.135 39.0729 168.156 38.1562C168.177 37.2188 168.219 36.2396 168.281 35.2188C168.344 34.1771 168.438 33.1146 168.562 32.0312C168.688 30.9271 168.854 29.8542 169.062 28.8125H157.844C157.51 28.8125 157.229 28.7188 157 28.5312C156.771 28.3229 156.656 28.0521 156.656 27.7188C156.656 27.3854 156.771 27.125 157 26.9375C157.229 26.7292 157.51 26.625 157.844 26.625H169.594C169.802 25.875 170.042 25.1875 170.312 24.5625C170.604 23.9375 170.927 23.3958 171.281 22.9375C171.656 22.4792 172.062 22.125 172.5 21.875C172.958 21.6042 173.458 21.4688 174 21.4688C174.521 21.4688 174.969 21.6042 175.344 21.875C175.74 22.125 176.073 22.4792 176.344 22.9375C176.615 23.3958 176.823 23.9375 176.969 24.5625C177.135 25.1875 177.26 25.875 177.344 26.625H193.312C193.646 26.625 193.927 26.7292 194.156 26.9375C194.385 27.125 194.5 27.3854 194.5 27.7188ZM170.969 47.1875C171.594 45.8125 172.156 44.3333 172.656 42.75C173.177 41.1458 173.615 39.5312 173.969 37.9062C174.344 36.2812 174.625 34.6875 174.812 33.125C175.021 31.5625 175.125 30.125 175.125 28.8125H171.438C171.146 30.1042 170.906 31.7083 170.719 33.625C170.552 35.5208 170.469 37.8333 170.469 40.5625C170.469 42.0833 170.51 43.3646 170.594 44.4062C170.677 45.4271 170.802 46.3542 170.969 47.1875ZM173.875 23.8125C173.688 23.8125 173.417 24.0208 173.062 24.4375C172.708 24.8333 172.354 25.5625 172 26.625H175C174.896 25.75 174.74 25.0625 174.531 24.5625C174.344 24.0625 174.125 23.8125 173.875 23.8125ZM171.469 49.4375V49.4688V49.4375ZM187.875 55.5625C188.312 56.1667 188.875 56.6562 189.562 57.0312C190.25 57.3854 191.094 57.5625 192.094 57.5625C193.115 57.5625 194.042 57.3229 194.875 56.8438C195.708 56.3438 196.469 55.6979 197.156 54.9062C197.844 54.1146 198.458 53.2292 199 52.25C199.542 51.2708 200.031 50.2917 200.469 49.3125C200.573 49.0833 200.719 48.9167 200.906 48.8125C201.094 48.6875 201.302 48.625 201.531 48.625C201.885 48.625 202.167 48.75 202.375 49C202.604 49.25 202.719 49.5208 202.719 49.8125C202.719 49.9167 202.708 50.0104 202.688 50.0938C202.667 50.1562 202.635 50.2292 202.594 50.3125C201.156 53.4792 199.583 55.8646 197.875 57.4688C196.188 59.0729 194.271 59.8958 192.125 59.9375C190.75 59.9375 189.562 59.6667 188.562 59.125C187.562 58.6042 186.74 57.9271 186.094 57.0938C185.448 56.2396 184.969 55.2812 184.656 54.2188C184.344 53.1562 184.188 52.0938 184.188 51.0312C184.188 49.9688 184.312 48.9896 184.562 48.0938C184.833 47.1979 185.208 46.4167 185.688 45.75C186.188 45.0833 186.771 44.5625 187.438 44.1875C188.125 43.8125 188.875 43.625 189.688 43.625C190.167 43.625 190.635 43.7292 191.094 43.9375C191.573 44.125 192 44.4062 192.375 44.7812C192.75 45.1354 193.052 45.5729 193.281 46.0938C193.51 46.6146 193.625 47.2083 193.625 47.875C193.625 48.7292 193.479 49.5312 193.188 50.2812C192.896 51.0312 192.49 51.7292 191.969 52.375C191.469 53.0208 190.865 53.6146 190.156 54.1562C189.448 54.6979 188.688 55.1667 187.875 55.5625ZM186.938 53.5312C187.583 53.2604 188.167 52.9167 188.688 52.5C189.229 52.0833 189.688 51.625 190.062 51.125C190.438 50.625 190.729 50.1042 190.938 49.5625C191.146 49 191.25 48.4375 191.25 47.875C191.25 47.25 191.094 46.7812 190.781 46.4688C190.469 46.1354 190.104 45.9688 189.688 45.9688C189.125 45.9688 188.646 46.125 188.25 46.4375C187.854 46.75 187.531 47.1562 187.281 47.6562C187.031 48.1562 186.844 48.7188 186.719 49.3438C186.615 49.9479 186.562 50.5521 186.562 51.1562C186.562 51.5312 186.594 51.9271 186.656 52.3438C186.74 52.7604 186.833 53.1562 186.938 53.5312ZM203.781 46.1562C203.698 46.7188 203.594 47.25 203.469 47.75C203.344 48.2292 203.219 48.6562 203.094 49.0312C202.99 49.3854 202.896 49.6771 202.812 49.9062C202.729 50.1354 202.677 50.2604 202.656 50.2812C202.448 50.7604 202.083 51 201.562 51C201.271 51 201 50.8958 200.75 50.6875C200.5 50.4583 200.375 50.1771 200.375 49.8438C200.375 49.7188 200.396 49.625 200.438 49.5625C200.479 49.5 200.542 49.375 200.625 49.1875C200.708 49 200.812 48.6875 200.938 48.25C201.062 47.8125 201.219 47.1354 201.406 46.2188C201.052 46.2188 200.688 46.2083 200.312 46.1875C199.938 46.1667 199.594 46.0938 199.281 45.9688C198.948 45.8438 198.677 45.6458 198.469 45.375C198.26 45.1042 198.156 44.7292 198.156 44.25C198.156 43.8958 198.26 43.4167 198.469 42.8125C198.656 42.2083 198.917 41.6146 199.25 41.0312C199.583 40.4479 199.958 39.9479 200.375 39.5312C200.792 39.0938 201.208 38.875 201.625 38.875C202.104 38.875 202.49 39.0521 202.781 39.4062C203.094 39.7604 203.333 40.1979 203.5 40.7188C203.667 41.2188 203.781 41.75 203.844 42.3125C203.927 42.875 203.969 43.3646 203.969 43.7812C204.323 43.7812 204.667 43.7812 205 43.7812C205.354 43.7604 205.688 43.75 206 43.75C207.188 43.75 208.094 44.0104 208.719 44.5312C209.344 45.0521 209.656 45.9062 209.656 47.0938C209.656 47.5729 209.625 48.0729 209.562 48.5938C209.5 49.1146 209.427 49.6562 209.344 50.2188C209.26 50.7604 209.188 51.3021 209.125 51.8438C209.062 52.3854 209.031 52.9167 209.031 53.4375C209.031 54.1875 209.135 54.8125 209.344 55.3125C209.552 55.7917 209.812 56.1771 210.125 56.4688C210.438 56.7604 210.771 56.9688 211.125 57.0938C211.479 57.1979 211.802 57.25 212.094 57.25C212.99 57.25 213.833 56.9583 214.625 56.375C215.417 55.7917 216.146 55.0938 216.812 54.2812C217.479 53.4479 218.073 52.5729 218.594 51.6562C219.135 50.7396 219.583 49.9375 219.938 49.25C220.042 49.0625 220.188 48.9167 220.375 48.8125C220.562 48.7083 220.76 48.6562 220.969 48.6562C221.344 48.6562 221.635 48.7812 221.844 49.0312C222.052 49.2604 222.156 49.5208 222.156 49.8125C222.156 50.0208 222.115 50.2083 222.031 50.375C221.552 51.2292 220.99 52.1979 220.344 53.2812C219.719 54.3438 219 55.3438 218.188 56.2812C217.375 57.2188 216.458 58.0104 215.438 58.6562C214.438 59.3021 213.333 59.625 212.125 59.625C211.375 59.625 210.667 59.4792 210 59.1875C209.333 58.9167 208.75 58.5208 208.25 58C207.771 57.4583 207.385 56.8021 207.094 56.0312C206.802 55.2396 206.656 54.3542 206.656 53.375C206.656 52.3333 206.76 51.3021 206.969 50.2812C207.177 49.2396 207.281 48.25 207.281 47.3125C207.281 46.9167 207.188 46.625 207 46.4375C206.833 46.2292 206.448 46.125 205.844 46.125C205.552 46.125 205.229 46.125 204.875 46.125C204.542 46.125 204.177 46.1354 203.781 46.1562ZM201.688 43.8438C201.688 43.6979 201.677 43.5104 201.656 43.2812C201.656 43.0312 201.635 42.7917 201.594 42.5625C201.573 42.3333 201.531 42.1354 201.469 41.9688C201.427 41.8021 201.375 41.7188 201.312 41.7188C201.25 41.7188 201.167 41.8021 201.062 41.9688C200.979 42.1146 200.885 42.3021 200.781 42.5312C200.677 42.7396 200.583 42.9688 200.5 43.2188C200.417 43.4688 200.354 43.6771 200.312 43.8438H201.688Z" fill="#574476"/>
<g filter="url(#filter0_d_202_161)">
<path d="M222 48.7813C222 48.7813 212.625 42.875 212.625 35.7031C212.625 34.4353 213.015 33.2066 213.73 32.2261C214.444 31.2456 215.439 30.5739 216.544 30.3253C217.649 30.0766 218.797 30.2664 219.791 30.8623C220.786 31.4582 221.567 32.4234 222 33.5938V33.5938C222.433 32.4234 223.214 31.4582 224.209 30.8623C225.203 30.2664 226.351 30.0766 227.456 30.3253C228.561 30.5739 229.556 31.2456 230.27 32.2261C230.985 33.2066 231.375 34.4353 231.375 35.7031C231.375 42.875 222 48.7813 222 48.7813Z" stroke="#574476" stroke-width="2" stroke-linecap="round" stroke-linejoin="round"/>
</g>
<defs>
<filter id="filter0_d_202_161" x="207.625" y="29.2187" width="28.75" height="28.5625" filterUnits="userSpaceOnUse" color-interpolation-filters="sRGB">
<feFlood flood-opacity="0" result="BackgroundImageFix"/>
<feColorMatrix in="SourceAlpha" type="matrix" values="0 0 0 0 0 0 0 0 0 0 0 0 0 0 0 0 0 0 127 0" result="hardAlpha"/>
<feOffset dy="4"/>
<feGaussianBlur stdDeviation="2"/>
<feComposite in2="hardAlpha" operator="out"/>
<feColorMatrix type="matrix" values="0 0 0 0 0 0 0 0 0 0 0 0 0 0 0 0 0 0 0.25 0"/>
<feBlend mode="normal" in2="BackgroundImageFix" result="effect1_dropShadow_202_161"/>
<feBlend mode="normal" in="SourceGraphic" in2="effect1_dropShadow_202_161" result="shape"/>
</filter>
</defs>
</svg>
