<svg width="147" height="32" viewBox="0 0 147 32" fill="none" xmlns="http://www.w3.org/2000/svg">
<path d="M36.0864 10.7222C36.0864 12.309 35.7844 13.7317 35.1804 14.9906C34.5764 16.2363 33.723 17.2985 32.62 18.177C31.5171 19.0425 30.1975 19.7113 28.6612 20.1833C27.125 20.6423 25.4312 20.8717 23.5798 20.8717C23.3566 20.8717 23.1596 20.8127 22.989 20.6947C22.8314 20.5636 22.7526 20.3735 22.7526 20.1243C22.7526 19.9276 22.8249 19.7571 22.9693 19.6129C23.1137 19.4687 23.291 19.3965 23.5011 19.3965C25.1555 19.3965 26.6654 19.2064 28.031 18.8261C29.3966 18.4459 30.5651 17.8886 31.5368 17.1542C32.5084 16.4068 33.2634 15.4954 33.8018 14.4201C34.3401 13.3449 34.6093 12.1123 34.6093 10.7222C34.6093 9.30603 34.2941 8.04718 33.6639 6.94568C33.0467 5.84419 32.1736 4.9132 31.0444 4.15267C29.9283 3.39207 28.589 2.81514 27.0266 2.42175C25.4771 2.02836 23.7702 1.8316 21.9058 1.8316C20.1463 1.8316 18.4394 1.97586 16.785 2.26439C15.1437 2.55286 13.6009 2.95934 12.1565 3.48384C10.7122 4.00841 9.39261 4.63783 8.19778 5.37212C7.01606 6.10647 5.99845 6.91295 5.14496 7.79151C4.30463 8.67006 3.64811 9.6142 3.17543 10.6239C2.70274 11.6205 2.46639 12.6565 2.46639 13.7317C2.46639 14.6758 2.63052 15.502 2.95878 16.2101C3.28703 16.9182 3.72033 17.5148 4.25867 18C4.81014 18.4721 5.44043 18.8261 6.14946 19.0621C6.85849 19.2982 7.6003 19.4162 8.37501 19.4162C9.2941 19.4162 10.1082 19.3179 10.8172 19.1212C11.5394 18.9245 12.1434 18.7081 12.6292 18.4721C13.1282 18.2361 13.5089 18.0197 13.7715 17.823C14.0342 17.6132 14.1786 17.4952 14.2048 17.4689C14.3493 17.3247 14.52 17.2525 14.7169 17.2525C14.9139 17.2525 15.0845 17.3312 15.229 17.4886C15.3866 17.6328 15.4653 17.8033 15.4653 18C15.4653 18.2229 15.3866 18.4 15.229 18.5311C15.2027 18.5573 15.032 18.695 14.7169 18.9442C14.4149 19.1933 13.9685 19.4687 13.3776 19.7702C12.7999 20.0588 12.0908 20.321 11.2505 20.557C10.4102 20.793 9.45167 20.9111 8.37501 20.9111C7.39024 20.9111 6.44486 20.7472 5.53887 20.4194C4.64601 20.0916 3.8582 19.6195 3.17543 19.0031C2.50578 18.3737 1.96744 17.6197 1.5604 16.7412C1.1665 15.8495 0.969543 14.8463 0.969543 13.7317C0.969543 12.5122 1.21902 11.3386 1.71797 10.2109C2.23005 9.06999 2.93908 8.0079 3.84507 7.02436C4.76418 6.02779 5.86055 5.12299 7.13417 4.31003C8.40784 3.48384 9.81935 2.78235 11.3687 2.20535C12.9181 1.61527 14.5791 1.1629 16.3516 0.848185C18.1243 0.520317 19.9624 0.356415 21.8663 0.356415C23.9541 0.356415 25.8711 0.592449 27.6174 1.06452C29.3637 1.53659 30.8606 2.21844 32.1079 3.11015C33.3684 4.00186 34.3466 5.0902 35.0425 6.3753C35.7385 7.64724 36.0864 9.09624 36.0864 10.7222ZM24.3873 6.04095C24.5843 6.04095 24.755 6.11302 24.8995 6.25728C25.057 6.38839 25.1358 6.56545 25.1358 6.78833C25.1358 6.9195 25.0964 7.03752 25.0176 7.14244C24.952 7.2473 24.8666 7.34568 24.7616 7.43745C24.0262 8.01445 23.4354 8.63733 22.989 9.30603C22.5557 9.97486 22.2209 10.6961 21.9845 11.4697C21.7613 12.2303 21.6103 13.0433 21.5315 13.9088C21.4658 14.7742 21.4331 15.679 21.4331 16.6231V19.1015C21.4331 20.7275 21.2886 22.2748 20.9997 23.7435C20.7109 25.199 20.2185 26.4776 19.5226 27.5791C18.8398 28.6806 17.9207 29.5526 16.7652 30.1952C15.6098 30.8508 14.1589 31.1786 12.4125 31.1786C11.6247 31.1786 10.8501 31.0803 10.0885 30.8836C9.34005 30.7 8.63101 30.4312 7.96143 30.0771C7.29173 29.7099 6.67465 29.2641 6.11001 28.7395C5.54543 28.215 5.05962 27.625 4.65258 26.9693C4.62632 26.9169 4.60006 26.8579 4.5738 26.7923C4.54754 26.7136 4.53441 26.6415 4.53441 26.576C4.53441 26.3924 4.60006 26.2285 4.73136 26.0842C4.8758 25.9268 5.05962 25.8482 5.28283 25.8482C5.41414 25.8482 5.53232 25.8875 5.63732 25.9662C5.75555 26.0318 5.854 26.117 5.93278 26.2218C6.77309 27.3889 7.72509 28.2675 8.78858 28.8576C9.85219 29.4346 11.0601 29.7231 12.4125 29.7231C13.9619 29.7231 15.2224 29.4411 16.194 28.8773C17.1789 28.3003 17.947 27.5201 18.4984 26.5366C19.063 25.54 19.4438 24.3795 19.6408 23.0551C19.8508 21.7306 19.9559 20.321 19.9559 18.8261V16.3281C19.9559 15.4495 19.9953 14.5447 20.0741 13.6137C20.1528 12.6696 20.3301 11.7517 20.6058 10.86C20.8947 9.95516 21.3017 9.10279 21.827 8.30291C22.3653 7.48988 23.0875 6.77523 23.9934 6.1589C24.046 6.13272 24.1116 6.10647 24.1904 6.08022C24.2692 6.05404 24.3348 6.04095 24.3873 6.04095ZM37.2484 27.9725C37.5242 28.3528 37.8787 28.6609 38.312 28.8969C38.7453 29.1198 39.277 29.2313 39.9073 29.2313C40.5507 29.2313 41.135 29.0805 41.6602 28.7789C42.1854 28.4642 42.6646 28.0577 43.098 27.5594C43.5312 27.0611 43.9186 26.5038 44.26 25.8875C44.6014 25.2712 44.91 24.6549 45.1856 24.0386C45.2513 23.8943 45.3432 23.7894 45.4614 23.7238C45.5795 23.6452 45.7109 23.6058 45.8553 23.6058C46.0785 23.6058 46.2558 23.6845 46.3871 23.8419C46.5315 23.9992 46.6037 24.1697 46.6037 24.3533C46.6037 24.4189 46.5972 24.4778 46.584 24.5303C46.5709 24.5696 46.5512 24.6155 46.5249 24.668C45.619 26.6612 44.6276 28.1626 43.551 29.1723C42.4874 30.182 41.2794 30.7 39.927 30.7262C39.0604 30.7262 38.312 30.5558 37.6817 30.2148C37.0515 29.887 36.5328 29.4608 36.1258 28.9363C35.7187 28.3986 35.4167 27.7954 35.2198 27.1267C35.0228 26.4579 34.9244 25.7892 34.9244 25.1203C34.9244 24.4516 35.0032 23.8353 35.1607 23.2715C35.3314 22.7076 35.5677 22.2159 35.8698 21.7962C36.1849 21.3766 36.5525 21.0488 36.9727 20.8127C37.406 20.5767 37.8787 20.4587 38.3908 20.4587C38.6928 20.4587 38.9882 20.5243 39.277 20.6554C39.579 20.7734 39.8482 20.9504 40.0846 21.1864C40.3209 21.4094 40.5113 21.6848 40.6558 22.0126C40.8002 22.3404 40.8724 22.7141 40.8724 23.1338C40.8724 23.6714 40.7805 24.1762 40.5966 24.6483C40.4128 25.1203 40.1568 25.5597 39.8285 25.9662C39.5134 26.3727 39.1326 26.7464 38.6862 27.0873C38.2398 27.4283 37.7605 27.7233 37.2484 27.9725ZM36.6576 26.6939C37.0646 26.5235 37.4323 26.3071 37.7605 26.0448C38.1019 25.7826 38.3908 25.4941 38.6271 25.1794C38.8635 24.8647 39.0473 24.5369 39.1786 24.1959C39.3099 23.8419 39.3755 23.4878 39.3755 23.1338C39.3755 22.7404 39.277 22.4453 39.0801 22.2487C38.8831 22.0388 38.6534 21.9339 38.3908 21.9339C38.0362 21.9339 37.7342 22.0323 37.4848 22.229C37.2353 22.4257 37.0318 22.6813 36.8743 22.996C36.7167 23.3108 36.5985 23.6649 36.5197 24.0583C36.4541 24.4385 36.4212 24.8188 36.4212 25.199C36.4212 25.4351 36.4409 25.6843 36.4803 25.9465C36.5328 26.2088 36.5919 26.4579 36.6576 26.6939ZM61.1586 10.4469C61.1586 10.6567 61.0864 10.8272 60.9419 10.9583C60.7975 11.0764 60.6203 11.1353 60.4102 11.1353H50.4247V11.3517C50.4247 12.1516 50.3656 13.0039 50.2474 13.9088C50.1292 14.8135 49.9651 15.7184 49.755 16.6231C49.5581 17.5148 49.3283 18.3868 49.0657 19.2392C48.8162 20.0916 48.5536 20.8783 48.2778 21.5995C48.0152 22.3207 47.7527 22.9502 47.49 23.4878C47.2274 24.0123 46.9911 24.4057 46.781 24.668C46.9517 25.2712 47.1552 25.8351 47.3915 26.3596C47.6279 26.871 47.8905 27.3233 48.1793 27.7167C48.4813 28.097 48.803 28.3986 49.1444 28.6216C49.4858 28.8445 49.8535 28.9559 50.2474 28.9559C50.707 28.9559 51.1599 28.7658 51.6064 28.3856C52.0659 27.9922 52.4861 27.5332 52.8669 27.0086C53.2608 26.471 53.6022 25.9334 53.8911 25.3958C54.193 24.845 54.4097 24.4057 54.541 24.0779C54.6723 23.7632 54.902 23.6058 55.2303 23.6058C55.4535 23.6058 55.6308 23.6845 55.7621 23.8419C55.9065 23.9992 55.9787 24.1697 55.9787 24.3533C55.9787 24.445 55.959 24.5369 55.9197 24.6286C55.8803 24.7204 55.7818 24.9303 55.6243 25.2581C55.4798 25.5859 55.2828 25.9662 55.0333 26.3989C54.797 26.8316 54.5147 27.2906 54.1865 27.7758C53.8713 28.2478 53.5103 28.6806 53.1032 29.074C52.7093 29.4674 52.2826 29.7952 51.823 30.0574C51.3634 30.3197 50.8776 30.4508 50.3656 30.4508C49.4596 30.4508 48.6455 30.1558 47.9233 29.5657C47.2012 28.9756 46.584 28.1495 46.072 27.0873C45.573 26.0252 45.1923 24.7664 44.9296 23.3108C44.667 21.8553 44.5357 20.262 44.5357 18.5311C44.5357 18.0984 44.5423 17.5935 44.5554 17.0165C44.5686 16.4265 44.5948 15.8101 44.6342 15.1676C44.6736 14.5119 44.7327 13.8432 44.8115 13.1613C44.8902 12.4663 44.9953 11.791 45.1266 11.1353H38.056C37.8458 11.1353 37.6686 11.0764 37.5242 10.9583C37.3797 10.8272 37.3075 10.6567 37.3075 10.4469C37.3075 10.2371 37.3797 10.0732 37.5242 9.95516C37.6686 9.82405 37.8458 9.75846 38.056 9.75846H45.4614C45.5927 9.28639 45.7437 8.85366 45.9144 8.46027C46.0982 8.06688 46.3017 7.72592 46.5249 7.43745C46.7613 7.14899 47.0173 6.92604 47.2931 6.76869C47.5819 6.59824 47.897 6.51302 48.2385 6.51302C48.5667 6.51302 48.849 6.59824 49.0854 6.76869C49.3348 6.92604 49.5449 7.14899 49.7156 7.43745C49.8863 7.72592 50.0176 8.06688 50.1095 8.46027C50.2145 8.85366 50.2933 9.28639 50.3459 9.75846H60.4102C60.6203 9.75846 60.7975 9.82405 60.9419 9.95516C61.0864 10.0732 61.1586 10.2371 61.1586 10.4469ZM46.328 22.701C46.7219 21.8356 47.0764 20.9045 47.3915 19.9079C47.7198 18.8982 47.9956 17.882 48.2188 16.8591C48.4551 15.8363 48.6324 14.8332 48.7505 13.8497C48.8818 12.8662 48.9475 11.9615 48.9475 11.1353H46.6234C46.4396 11.9484 46.2886 12.958 46.1705 14.1644C46.0654 15.3577 46.0129 16.8133 46.0129 18.5311C46.0129 19.4883 46.0391 20.2948 46.0917 20.9504C46.1442 21.593 46.223 22.1765 46.328 22.701ZM48.1597 7.9882C48.0415 7.9882 47.8708 8.11931 47.6476 8.38159C47.4244 8.63072 47.2012 9.0897 46.9779 9.75846H48.8687C48.803 9.20771 48.7046 8.77498 48.5732 8.46027C48.4551 8.14556 48.3172 7.9882 48.1597 7.9882ZM46.6432 24.1172V24.1369V24.1172ZM89.5987 9.48309C89.5597 9.66669 89.474 9.81089 89.3429 9.91582C89.2111 10.0207 89.0668 10.0732 88.9093 10.0732C88.6729 10.0732 88.4826 10.001 88.3382 9.85678C88.1939 9.69942 88.1214 9.52243 88.1214 9.32573C88.1214 9.12903 88.1416 8.93889 88.1807 8.75528C88.2198 8.55865 88.2399 8.3685 88.2399 8.1849C88.2399 7.22767 87.9443 6.36875 87.3538 5.60815C86.7626 4.84762 85.9225 4.21165 84.8328 3.70024C83.7557 3.17574 82.4429 2.77574 80.8937 2.50043C79.3439 2.22499 77.6177 2.08734 75.7137 2.08734C74.2559 2.08734 72.7855 2.18571 71.3019 2.38235C69.8309 2.56595 68.4128 2.84132 67.0477 3.20853C65.6952 3.56252 64.4277 4.01495 63.2466 4.5657C62.0643 5.10335 61.0339 5.73278 60.1541 6.45398C59.2875 7.16208 58.6048 7.95541 58.1058 8.83396C57.6069 9.69942 57.3574 10.6502 57.3574 11.6861C57.3574 12.486 57.5281 13.1941 57.8695 13.8104C58.224 14.4136 58.7033 14.9447 59.3073 15.4037C59.9112 15.8495 60.6203 16.2363 61.4344 16.5641C62.2616 16.8788 63.1546 17.1477 64.1126 17.3706C65.0712 17.5804 66.0695 17.7574 67.1063 17.9017C68.1437 18.0328 69.188 18.1442 70.238 18.2361L73.2714 18.4917C74.7815 18.6229 76.1334 18.7606 77.3284 18.9048C78.5233 19.049 79.574 19.2326 80.4796 19.4555C81.9897 19.8358 83.1059 20.38 83.8282 21.0881C84.5504 21.7962 84.9109 22.7404 84.9109 23.9205C84.9109 25.0614 84.5958 26.0645 83.9656 26.9299C83.3353 27.7954 82.4756 28.5232 81.3859 29.1133C80.2962 29.7034 79.0225 30.1492 77.5647 30.4508C76.1076 30.7524 74.5452 30.9033 72.8775 30.9033C71.0656 30.9033 69.4698 30.7786 68.0914 30.5295C66.7256 30.2935 65.5767 30.0312 64.6445 29.7427C63.7256 29.4411 63.0229 29.1657 62.537 28.9166C62.0517 28.6675 61.7889 28.5298 61.7495 28.5035C61.5131 28.3724 61.395 28.1626 61.395 27.8741C61.395 27.6512 61.4737 27.4741 61.6313 27.343C61.7889 27.1988 61.9595 27.1267 62.1437 27.1267C62.288 27.1267 62.4191 27.166 62.537 27.2447C62.5502 27.2447 62.774 27.3627 63.2069 27.5988C63.6532 27.8217 64.3099 28.0708 65.1765 28.3462C66.0563 28.6216 67.1397 28.8707 68.4261 29.0937C69.713 29.3165 71.2099 29.428 72.9166 29.428C74.6107 29.428 76.1076 29.2903 77.4072 29.015C78.7074 28.7395 79.7971 28.3593 80.6769 27.8741C81.5693 27.3758 82.2393 26.7988 82.6855 26.1432C83.145 25.4745 83.375 24.7532 83.375 23.9796C83.375 23.5206 83.2899 23.1272 83.1191 22.7994C82.9616 22.4584 82.7385 22.17 82.4492 21.9339C82.1605 21.6848 81.8126 21.475 81.4055 21.3045C81.0116 21.134 80.5786 20.9898 80.1059 20.8717C79.6067 20.7406 79.0685 20.6291 78.4906 20.5374C77.9258 20.4456 77.3416 20.3669 76.7378 20.3013C76.1334 20.2358 75.5233 20.1768 74.9063 20.1243C74.3019 20.0719 73.7044 20.0194 73.1139 19.967L70.0805 19.7113C67.6912 19.5146 65.6032 19.2129 63.8177 18.8065C62.0448 18.3868 60.5678 17.8558 59.386 17.2133C58.2043 16.5576 57.318 15.7773 56.7272 14.8725C56.1363 13.9677 55.8409 12.9121 55.8409 11.7058C55.8409 10.4731 56.1166 9.34543 56.6681 8.32261C57.2327 7.28664 57.9943 6.35566 58.9527 5.52948C59.9244 4.70342 61.0536 3.9887 62.3403 3.38553C63.6399 2.76919 65.0252 2.25778 66.4962 1.8513C67.9666 1.44482 69.4899 1.1432 71.0656 0.946501C72.6412 0.736714 74.1903 0.631789 75.7137 0.631789C77.6177 0.631789 79.2721 0.749806 80.6769 0.98584C82.095 1.20878 83.3025 1.50379 84.3008 1.871C85.3118 2.22499 86.1387 2.63154 86.7822 3.09045C87.4256 3.54943 87.9443 4.00186 88.3382 4.44768C89.2704 5.53608 89.7368 6.77523 89.7368 8.16526C89.7368 8.62417 89.6908 9.06345 89.5987 9.48309ZM90.9576 14.6955C90.9576 15.1938 90.7805 15.62 90.4256 15.974C90.0847 16.315 89.6643 16.4854 89.1651 16.4854C88.6666 16.4854 88.2399 16.315 87.8851 15.974C87.5441 15.62 87.3733 15.1938 87.3733 14.6955C87.3733 14.4464 87.4193 14.2169 87.5114 14.0071C87.6027 13.7841 87.7275 13.5941 87.8851 13.4367C88.0559 13.2662 88.2462 13.1351 88.4567 13.0433C88.6798 12.9515 88.9162 12.9056 89.1651 12.9056C89.4147 12.9056 89.6448 12.9515 89.8546 13.0433C90.0777 13.1351 90.2681 13.2662 90.4256 13.4367C90.5964 13.5941 90.7282 13.7841 90.8202 14.0071C90.9116 14.2169 90.9576 14.4464 90.9576 14.6955ZM87.7672 26.2218C87.7672 24.3336 87.8851 22.4519 88.1214 20.5767C88.1479 20.3931 88.2267 20.2358 88.3578 20.1046C88.5021 19.9604 88.6861 19.8883 88.9093 19.8883C89.1065 19.8883 89.2704 19.967 89.4021 20.1243C89.5332 20.2685 89.5987 20.4391 89.5987 20.6357C89.5987 20.7144 89.5792 20.9504 89.5395 21.3438C89.5137 21.7372 89.474 22.2093 89.4216 22.76C89.3819 23.2977 89.3429 23.8747 89.3032 24.4909C89.2773 25.0942 89.2641 25.6515 89.2641 26.1629C89.2641 26.8579 89.3296 27.4217 89.4607 27.8544C89.6051 28.2741 89.7828 28.6019 89.9927 28.8379C90.2158 29.074 90.4458 29.2313 90.6821 29.31C90.9317 29.3887 91.1681 29.428 91.3912 29.428C91.7586 29.428 92.1393 29.2969 92.5332 29.0346C92.9271 28.7723 93.3279 28.4052 93.7345 27.9331C94.1548 27.4611 94.5752 26.8972 94.995 26.2415C95.4153 25.5728 95.8288 24.8319 96.2359 24.0189C96.3015 23.8877 96.3935 23.7894 96.512 23.7238C96.6298 23.6452 96.7616 23.6058 96.9059 23.6058C97.1158 23.6058 97.2866 23.6845 97.4177 23.8419C97.562 23.9992 97.6345 24.1697 97.6345 24.3533C97.6345 24.4844 97.608 24.5958 97.5557 24.6877C97.3981 24.9892 97.2009 25.3564 96.9651 25.7892C96.7282 26.2218 96.459 26.6677 96.1572 27.1267C95.8553 27.5856 95.5206 28.0446 95.1525 28.5035C94.7983 28.9494 94.4177 29.3559 94.0105 29.7231C93.6034 30.0771 93.1767 30.3656 92.7305 30.5885C92.2836 30.8114 91.8311 30.9229 91.371 30.9229C90.7805 30.9229 90.2618 30.7983 89.8156 30.5491C89.3687 30.3 88.988 29.9657 88.6729 29.546C88.371 29.1264 88.1416 28.6347 87.984 28.0708C87.8391 27.4938 87.7672 26.8775 87.7672 26.2218ZM89.8546 14.6955C89.8546 14.5119 89.7828 14.3546 89.6378 14.2235C89.5067 14.0792 89.3492 14.0071 89.1651 14.0071C88.9817 14.0071 88.8242 14.0792 88.6924 14.2235C88.5614 14.3546 88.4958 14.5119 88.4958 14.6955C88.4958 14.8791 88.5614 15.0364 88.6924 15.1676C88.8242 15.2987 88.9817 15.3643 89.1651 15.3643C89.3492 15.3643 89.5067 15.2987 89.6378 15.1676C89.7828 15.0364 89.8546 14.8791 89.8546 14.6955ZM112.169 10.4469C112.169 10.6567 112.097 10.8272 111.953 10.9583C111.809 11.0764 111.631 11.1353 111.421 11.1353H101.436V11.3517C101.436 12.1516 101.377 13.0039 101.258 13.9088C101.14 14.8135 100.976 15.7184 100.766 16.6231C100.569 17.5148 100.34 18.3868 100.077 19.2392C99.8271 20.0916 99.5643 20.8783 99.2889 21.5995C99.0261 22.3207 98.7639 22.9502 98.5011 23.4878C98.2382 24.0123 98.0019 24.4057 97.792 24.668C97.9628 25.2712 98.1664 25.8351 98.4027 26.3596C98.6391 26.871 98.9013 27.3233 99.1906 27.7167C99.4924 28.097 99.8139 28.3986 100.155 28.6216C100.497 28.8445 100.865 28.9559 101.258 28.9559C101.718 28.9559 102.171 28.7658 102.617 28.3856C103.077 27.9922 103.497 27.5332 103.878 27.0086C104.272 26.471 104.613 25.9334 104.902 25.3958C105.204 24.845 105.421 24.4057 105.552 24.0779C105.683 23.7632 105.913 23.6058 106.241 23.6058C106.464 23.6058 106.642 23.6845 106.773 23.8419C106.917 23.9992 106.99 24.1697 106.99 24.3533C106.99 24.445 106.97 24.5369 106.931 24.6286C106.892 24.7204 106.793 24.9303 106.635 25.2581C106.491 25.5859 106.294 25.9662 106.045 26.3989C105.808 26.8316 105.526 27.2906 105.197 27.7758C104.882 28.2478 104.521 28.6806 104.114 29.074C103.72 29.4674 103.293 29.7952 102.834 30.0574C102.375 30.3197 101.889 30.4508 101.377 30.4508C100.471 30.4508 99.6563 30.1558 98.934 29.5657C98.2124 28.9756 97.5954 28.1495 97.083 27.0873C96.5838 26.0252 96.2032 24.7664 95.9403 23.3108C95.6782 21.8553 95.5471 20.262 95.5471 18.5311C95.5471 18.0984 95.5534 17.5935 95.5666 17.0165C95.5798 16.4265 95.6057 15.8101 95.6454 15.1676C95.6845 14.5119 95.7437 13.8432 95.8225 13.1613C95.9013 12.4663 96.0065 11.791 96.1376 11.1353H89.0668C88.8569 11.1353 88.6798 11.0764 88.5349 10.9583C88.3906 10.8272 88.3187 10.6567 88.3187 10.4469C88.3187 10.2371 88.3906 10.0732 88.5349 9.95516C88.6798 9.82405 88.8569 9.75846 89.0668 9.75846H96.4723C96.604 9.28639 96.7546 8.85366 96.9254 8.46027C97.1095 8.06688 97.313 7.72592 97.5361 7.43745C97.7725 7.14899 98.0284 6.92604 98.3038 6.76869C98.5931 6.59824 98.9082 6.51302 99.2492 6.51302C99.5775 6.51302 99.8599 6.59824 100.096 6.76869C100.346 6.92604 100.556 7.14899 100.726 7.43745C100.897 7.72592 101.028 8.06688 101.12 8.46027C101.226 8.85366 101.304 9.28639 101.357 9.75846H111.421C111.631 9.75846 111.809 9.82405 111.953 9.95516C112.097 10.0732 112.169 10.2371 112.169 10.4469ZM97.3389 22.701C97.7328 21.8356 98.0876 20.9045 98.4027 19.9079C98.7311 18.8982 99.0065 17.882 99.2296 16.8591C99.466 15.8363 99.6437 14.8332 99.7616 13.8497C99.8927 12.8662 99.9588 11.9615 99.9588 11.1353H97.6345C97.4504 11.9484 97.2998 12.958 97.1813 14.1644C97.0767 15.3577 97.0238 16.8133 97.0238 18.5311C97.0238 19.4883 97.0502 20.2948 97.1025 20.9504C97.1555 21.593 97.2343 22.1765 97.3389 22.701ZM99.171 7.9882C99.0525 7.9882 98.8817 8.11931 98.6586 8.38159C98.4355 8.63072 98.2124 9.0897 97.9887 9.75846H99.8794C99.8139 9.20771 99.7156 8.77498 99.5845 8.46027C99.466 8.14556 99.3286 7.9882 99.171 7.9882ZM97.654 24.1172V24.1369V24.1172ZM121.584 10.4469C121.584 10.6567 121.512 10.8272 121.367 10.9583C121.223 11.0764 121.046 11.1353 120.835 11.1353H110.85V11.3517C110.85 12.1516 110.791 13.0039 110.673 13.9088C110.555 14.8135 110.391 15.7184 110.18 16.6231C109.984 17.5148 109.754 18.3868 109.491 19.2392C109.242 20.0916 108.979 20.8783 108.703 21.5995C108.441 22.3207 108.178 22.9502 107.915 23.4878C107.653 24.0123 107.417 24.4057 107.207 24.668C107.377 25.2712 107.58 25.8351 107.817 26.3596C108.053 26.871 108.316 27.3233 108.605 27.7167C108.907 28.097 109.229 28.3986 109.57 28.6216C109.911 28.8445 110.279 28.9559 110.673 28.9559C111.133 28.9559 111.585 28.7658 112.032 28.3856C112.491 27.9922 112.912 27.5332 113.292 27.0086C113.686 26.471 114.027 25.9334 114.317 25.3958C114.618 24.845 114.835 24.4057 114.966 24.0779C115.097 23.7632 115.328 23.6058 115.656 23.6058C115.879 23.6058 116.056 23.6845 116.188 23.8419C116.332 23.9992 116.404 24.1697 116.404 24.3533C116.404 24.445 116.384 24.5369 116.345 24.6286C116.306 24.7204 116.207 24.9303 116.05 25.2581C115.905 25.5859 115.708 25.9662 115.459 26.3989C115.222 26.8316 114.94 27.2906 114.612 27.7758C114.297 28.2478 113.936 28.6806 113.529 29.074C113.135 29.4674 112.708 29.7952 112.249 30.0574C111.789 30.3197 111.303 30.4508 110.791 30.4508C109.885 30.4508 109.071 30.1558 108.349 29.5657C107.626 28.9756 107.009 28.1495 106.497 27.0873C105.999 26.0252 105.618 24.7664 105.355 23.3108C105.092 21.8553 104.961 20.262 104.961 18.5311C104.961 18.0984 104.967 17.5935 104.981 17.0165C104.994 16.4265 105.02 15.8101 105.059 15.1676C105.099 14.5119 105.158 13.8432 105.237 13.1613C105.316 12.4663 105.421 11.791 105.552 11.1353H98.4815C98.271 11.1353 98.0939 11.0764 97.9496 10.9583C97.8053 10.8272 97.7328 10.6567 97.7328 10.4469C97.7328 10.2371 97.8053 10.0732 97.9496 9.95516C98.0939 9.82405 98.271 9.75846 98.4815 9.75846H105.887C106.018 9.28639 106.169 8.85366 106.34 8.46027C106.524 8.06688 106.727 7.72592 106.95 7.43745C107.187 7.14899 107.442 6.92604 107.718 6.76869C108.007 6.59824 108.322 6.51302 108.664 6.51302C108.992 6.51302 109.275 6.59824 109.511 6.76869C109.761 6.92604 109.97 7.14899 110.141 7.43745C110.312 7.72592 110.443 8.06688 110.535 8.46027C110.64 8.85366 110.718 9.28639 110.771 9.75846H120.835C121.046 9.75846 121.223 9.82405 121.367 9.95516C121.512 10.0732 121.584 10.2371 121.584 10.4469ZM106.754 22.701C107.147 21.8356 107.502 20.9045 107.817 19.9079C108.145 18.8982 108.421 17.882 108.644 16.8591C108.881 15.8363 109.058 14.8332 109.176 13.8497C109.307 12.8662 109.373 11.9615 109.373 11.1353H107.049C106.865 11.9484 106.714 12.958 106.596 14.1644C106.491 15.3577 106.438 16.8133 106.438 18.5311C106.438 19.4883 106.464 20.2948 106.517 20.9504C106.57 21.593 106.648 22.1765 106.754 22.701ZM108.585 7.9882C108.467 7.9882 108.296 8.11931 108.073 8.38159C107.85 8.63072 107.626 9.0897 107.403 9.75846H109.294C109.229 9.20771 109.13 8.77498 108.999 8.46027C108.881 8.14556 108.743 7.9882 108.585 7.9882ZM107.069 24.1172V24.1369V24.1172ZM117.409 27.9725C117.684 28.3528 118.039 28.6609 118.472 28.8969C118.905 29.1198 119.437 29.2313 120.068 29.2313C120.711 29.2313 121.295 29.0805 121.82 28.7789C122.345 28.4642 122.825 28.0577 123.258 27.5594C123.692 27.0611 124.079 26.5038 124.42 25.8875C124.762 25.2712 125.07 24.6549 125.346 24.0386C125.412 23.8943 125.504 23.7894 125.621 23.7238C125.74 23.6452 125.871 23.6058 126.015 23.6058C126.238 23.6058 126.416 23.6845 126.547 23.8419C126.692 23.9992 126.764 24.1697 126.764 24.3533C126.764 24.4189 126.757 24.4778 126.745 24.5303C126.731 24.5696 126.711 24.6155 126.685 24.668C125.779 26.6612 124.788 28.1626 123.711 29.1723C122.648 30.182 121.44 30.7 120.087 30.7262C119.221 30.7262 118.472 30.5558 117.842 30.2148C117.211 29.887 116.693 29.4608 116.286 28.9363C115.879 28.3986 115.577 27.7954 115.38 27.1267C115.183 26.4579 115.085 25.7892 115.085 25.1203C115.085 24.4516 115.163 23.8353 115.321 23.2715C115.491 22.7076 115.728 22.2159 116.03 21.7962C116.345 21.3766 116.713 21.0488 117.133 20.8127C117.566 20.5767 118.039 20.4587 118.551 20.4587C118.853 20.4587 119.148 20.5243 119.437 20.6554C119.739 20.7734 120.008 20.9504 120.245 21.1864C120.481 21.4094 120.671 21.6848 120.816 22.0126C120.96 22.3404 121.033 22.7141 121.033 23.1338C121.033 23.6714 120.941 24.1762 120.757 24.6483C120.573 25.1203 120.317 25.5597 119.989 25.9662C119.674 26.3727 119.293 26.7464 118.846 27.0873C118.4 27.4283 117.921 27.7233 117.409 27.9725ZM116.818 26.6939C117.225 26.5235 117.593 26.3071 117.921 26.0448C118.262 25.7826 118.551 25.4941 118.787 25.1794C119.024 24.8647 119.207 24.5369 119.339 24.1959C119.47 23.8419 119.536 23.4878 119.536 23.1338C119.536 22.7404 119.437 22.4453 119.24 22.2487C119.044 22.0388 118.813 21.9339 118.551 21.9339C118.196 21.9339 117.895 22.0323 117.645 22.229C117.395 22.4257 117.192 22.6813 117.034 22.996C116.877 23.3108 116.759 23.6649 116.68 24.0583C116.615 24.4385 116.581 24.8188 116.581 25.199C116.581 25.4351 116.601 25.6843 116.64 25.9465C116.693 26.2088 116.752 26.4579 116.818 26.6939ZM127.433 22.0519C127.381 22.406 127.316 22.7404 127.237 23.0551C127.158 23.3567 127.079 23.6255 127 23.8615C126.935 24.0844 126.876 24.268 126.823 24.4122C126.77 24.5565 126.738 24.6352 126.724 24.6483C126.593 24.9499 126.363 25.1007 126.035 25.1007C125.851 25.1007 125.681 25.0351 125.523 24.904C125.366 24.7598 125.287 24.5828 125.287 24.373C125.287 24.2943 125.3 24.2353 125.326 24.1959C125.352 24.1566 125.392 24.0779 125.444 23.9599C125.497 23.8419 125.562 23.6452 125.642 23.3698C125.72 23.0944 125.819 22.6682 125.937 22.0913C125.713 22.0913 125.484 22.0847 125.247 22.0716C125.011 22.0585 124.795 22.0126 124.597 21.9339C124.387 21.8553 124.217 21.7306 124.086 21.5602C123.954 21.3897 123.888 21.1537 123.888 20.8521C123.888 20.6291 123.954 20.3276 124.086 19.9473C124.203 19.567 124.368 19.1933 124.578 18.8261C124.788 18.4589 125.024 18.1442 125.287 17.882C125.55 17.6066 125.812 17.4689 126.075 17.4689C126.376 17.4689 126.62 17.5804 126.803 17.8033C127 18.0262 127.151 18.3016 127.256 18.6295C127.362 18.9442 127.433 19.2785 127.473 19.6326C127.525 19.9866 127.552 20.2948 127.552 20.557C127.775 20.557 127.992 20.557 128.202 20.557C128.425 20.5439 128.635 20.5374 128.832 20.5374C129.581 20.5374 130.152 20.7013 130.546 21.0291C130.94 21.3569 131.136 21.8945 131.136 22.642C131.136 22.9436 131.117 23.2583 131.077 23.5862C131.038 23.914 130.992 24.2549 130.94 24.609C130.887 24.9499 130.841 25.2909 130.801 25.6318C130.762 25.9727 130.742 26.3071 130.742 26.6349C130.742 27.107 130.808 27.5004 130.94 27.8151C131.071 28.1167 131.234 28.3593 131.432 28.5429C131.629 28.7265 131.839 28.8576 132.062 28.9363C132.285 29.0018 132.489 29.0346 132.673 29.0346C133.237 29.0346 133.769 28.851 134.268 28.4839C134.767 28.1167 135.226 27.6775 135.646 27.166C136.067 26.6415 136.441 26.0907 136.769 25.5137C137.11 24.9368 137.393 24.4319 137.616 23.9992C137.682 23.8812 137.774 23.7894 137.892 23.7238C138.01 23.6583 138.134 23.6255 138.266 23.6255C138.503 23.6255 138.686 23.7041 138.818 23.8615C138.949 24.0058 139.014 24.1697 139.014 24.3533C139.014 24.4844 138.988 24.6024 138.936 24.7073C138.634 25.245 138.279 25.8547 137.872 26.5366C137.478 27.2054 137.025 27.8348 136.513 28.4248C136.001 29.015 135.423 29.5132 134.78 29.9197C134.15 30.3263 133.454 30.5295 132.692 30.5295C132.22 30.5295 131.773 30.4377 131.353 30.2541C130.933 30.0837 130.565 29.8345 130.25 29.5067C129.948 29.1657 129.705 28.7527 129.521 28.2675C129.337 27.7692 129.245 27.2119 129.245 26.5956C129.245 25.9399 129.311 25.2909 129.443 24.6483C129.574 23.9927 129.639 23.3698 129.639 22.7797C129.639 22.5306 129.581 22.347 129.462 22.229C129.357 22.0978 129.114 22.0323 128.734 22.0323C128.55 22.0323 128.346 22.0323 128.123 22.0323C127.913 22.0323 127.683 22.0388 127.433 22.0519ZM126.114 20.5964C126.114 20.5046 126.107 20.3866 126.094 20.2423C126.094 20.0849 126.081 19.9342 126.055 19.7899C126.042 19.6457 126.015 19.5211 125.976 19.4162C125.95 19.3113 125.917 19.2589 125.877 19.2589C125.838 19.2589 125.786 19.3113 125.72 19.4162C125.667 19.508 125.608 19.626 125.543 19.7702C125.477 19.9014 125.418 20.0457 125.366 20.203C125.313 20.3604 125.274 20.4915 125.247 20.5964H126.114Z" fill="#E1E1E6"/>
<g filter="url(#filter0_i_312_58)">
<path d="M138.601 23.0748C138.601 23.0748 131.954 19.3572 131.954 14.843C131.954 14.045 132.23 13.2717 132.737 12.6545C133.244 12.0374 133.949 11.6146 134.732 11.4581C135.516 11.3016 136.329 11.421 137.035 11.7961C137.74 12.1712 138.293 12.7787 138.601 13.5154C138.908 12.7787 139.462 12.1712 140.167 11.7961C140.872 11.421 141.686 11.3016 142.469 11.4581C143.253 11.6146 143.958 12.0374 144.465 12.6545C144.971 13.2717 145.248 14.045 145.248 14.843C145.248 19.3572 138.601 23.0748 138.601 23.0748Z" stroke="#E1E1E6" stroke-width="2" stroke-linecap="round" stroke-linejoin="round"/>
</g>
<defs>
<filter id="filter0_i_312_58" x="130.954" y="10.3911" width="15.2945" height="17.6837" filterUnits="userSpaceOnUse" color-interpolation-filters="sRGB">
<feFlood flood-opacity="0" result="BackgroundImageFix"/>
<feBlend mode="normal" in="SourceGraphic" in2="BackgroundImageFix" result="shape"/>
<feColorMatrix in="SourceAlpha" type="matrix" values="0 0 0 0 0 0 0 0 0 0 0 0 0 0 0 0 0 0 127 0" result="hardAlpha"/>
<feOffset dy="4"/>
<feGaussianBlur stdDeviation="2"/>
<feComposite in2="hardAlpha" operator="arithmetic" k2="-1" k3="1"/>
<feColorMatrix type="matrix" values="0 0 0 0 0 0 0 0 0 0 0 0 0 0 0 0 0 0 0.25 0"/>
<feBlend mode="normal" in2="shape" result="effect1_innerShadow_312_58"/>
</filter>
</defs>
</svg>
